<mxfile host="b6197d27-a4c6-4982-955f-63a733367ccf" modified="2020-07-30T11:04:02.983Z" agent="5.0 (Macintosh; Intel Mac OS X 10_11_6) AppleWebKit/537.36 (KHTML, like Gecko) Code/1.47.2 Chrome/78.0.3904.130 Electron/7.3.2 Safari/537.36" etag="lkL8pGlLpQ5GTIIm_hSI" version="13.1.3">
    <diagram id="6hGFLwfOUW9BJ-s0fimq" name="Page-1">
        <mxGraphModel dx="2132" dy="1558" grid="1" gridSize="10" guides="1" tooltips="1" connect="1" arrows="1" fold="1" page="1" pageScale="1" pageWidth="827" pageHeight="1169" math="0" shadow="0">
            <root>
                <mxCell id="0"/>
                <mxCell id="1" parent="0"/>
                <mxCell id="4" value="Help" style="text;html=1;align=center;verticalAlign=middle;whiteSpace=wrap;rounded=0;fontColor=#FFFFFF;" vertex="1" parent="1">
                    <mxGeometry x="-380" y="-1154" width="60" height="30" as="geometry"/>
                </mxCell>
                <mxCell id="8" value="" style="rounded=0;whiteSpace=wrap;html=1;fillColor=#1A1A1A;" vertex="1" parent="1">
                    <mxGeometry x="-830" y="-1169" width="650" height="349" as="geometry"/>
                </mxCell>
                <mxCell id="23" style="edgeStyle=orthogonalEdgeStyle;rounded=0;orthogonalLoop=1;jettySize=auto;html=1;exitX=0.5;exitY=1;exitDx=0;exitDy=0;fontColor=#FFFFFF;" edge="1" parent="1" source="8" target="8">
                    <mxGeometry relative="1" as="geometry"/>
                </mxCell>
                <mxCell id="24" value="" style="rounded=0;whiteSpace=wrap;html=1;strokeColor=#1A1A1A;fillColor=#1A1A1A;fontColor=#FFFFFF;" vertex="1" parent="1">
                    <mxGeometry x="-600" y="-930" width="120" height="60" as="geometry"/>
                </mxCell>
                <mxCell id="26" value="" style="rounded=0;whiteSpace=wrap;html=1;" vertex="1" parent="1">
                    <mxGeometry x="-320" y="-1169" width="140" height="349" as="geometry"/>
                </mxCell>
                <mxCell id="27" value="" style="ellipse;whiteSpace=wrap;html=1;aspect=fixed;fillColor=#ffe6cc;strokeColor=#d79b00;" vertex="1" parent="1">
                    <mxGeometry x="-780" y="-1130" width="80" height="80" as="geometry"/>
                </mxCell>
                <mxCell id="28" value="Text" style="text;html=1;strokeColor=none;fillColor=none;align=center;verticalAlign=middle;whiteSpace=wrap;rounded=0;fontColor=#FFFFFF;" vertex="1" parent="1">
                    <mxGeometry x="-760" y="-1040" width="40" height="20" as="geometry"/>
                </mxCell>
                <mxCell id="29" value="" style="ellipse;whiteSpace=wrap;html=1;aspect=fixed;strokeColor=#b85450;fillColor=#f8cecc;" vertex="1" parent="1">
                    <mxGeometry x="-610" y="-1130" width="80" height="80" as="geometry"/>
                </mxCell>
                <mxCell id="30" value="Text" style="text;html=1;strokeColor=none;fillColor=none;align=center;verticalAlign=middle;whiteSpace=wrap;rounded=0;fontColor=#FFFFFF;" vertex="1" parent="1">
                    <mxGeometry x="-590" y="-1040" width="40" height="20" as="geometry"/>
                </mxCell>
                <mxCell id="31" value="" style="ellipse;whiteSpace=wrap;html=1;aspect=fixed;strokeColor=#6c8ebf;fillColor=#dae8fc;" vertex="1" parent="1">
                    <mxGeometry x="-453" y="-1130" width="80" height="80" as="geometry"/>
                </mxCell>
                <mxCell id="32" value="Text" style="text;html=1;strokeColor=none;fillColor=none;align=center;verticalAlign=middle;whiteSpace=wrap;rounded=0;fontColor=#FFFFFF;" vertex="1" parent="1">
                    <mxGeometry x="-433" y="-1040" width="40" height="20" as="geometry"/>
                </mxCell>
                <mxCell id="33" value="" style="ellipse;whiteSpace=wrap;html=1;aspect=fixed;strokeColor=#9673a6;fillColor=#e1d5e7;" vertex="1" parent="1">
                    <mxGeometry x="-770" y="-960" width="80" height="80" as="geometry"/>
                </mxCell>
                <mxCell id="34" value="Text" style="text;html=1;strokeColor=none;fillColor=none;align=center;verticalAlign=middle;whiteSpace=wrap;rounded=0;fontColor=#FFFFFF;" vertex="1" parent="1">
                    <mxGeometry x="-750" y="-870" width="40" height="20" as="geometry"/>
                </mxCell>
                <mxCell id="35" value="" style="ellipse;whiteSpace=wrap;html=1;aspect=fixed;strokeColor=#82b366;fillColor=#d5e8d4;" vertex="1" parent="1">
                    <mxGeometry x="-610" y="-960" width="80" height="80" as="geometry"/>
                </mxCell>
                <mxCell id="36" value="Text" style="text;html=1;strokeColor=none;fillColor=none;align=center;verticalAlign=middle;whiteSpace=wrap;rounded=0;fontColor=#FFFFFF;" vertex="1" parent="1">
                    <mxGeometry x="-590" y="-870" width="40" height="20" as="geometry"/>
                </mxCell>
                <mxCell id="37" value="" style="ellipse;whiteSpace=wrap;html=1;aspect=fixed;strokeColor=#d6b656;fillColor=#fff2cc;" vertex="1" parent="1">
                    <mxGeometry x="-450" y="-960" width="80" height="80" as="geometry"/>
                </mxCell>
                <mxCell id="38" value="Text" style="text;html=1;strokeColor=none;fillColor=none;align=center;verticalAlign=middle;whiteSpace=wrap;rounded=0;fontColor=#FFFFFF;" vertex="1" parent="1">
                    <mxGeometry x="-430" y="-870" width="40" height="20" as="geometry"/>
                </mxCell>
                <mxCell id="39" value="" style="ellipse;whiteSpace=wrap;html=1;aspect=fixed;strokeColor=#B20000;fillColor=#e51400;fontColor=#ffffff;" vertex="1" parent="1">
                    <mxGeometry x="-265" y="-875" width="30" height="30" as="geometry"/>
                </mxCell>
                <mxCell id="40" value="a" style="ellipse;whiteSpace=wrap;html=1;aspect=fixed;" vertex="1" parent="1">
                    <mxGeometry x="-310" y="-875" width="30" height="30" as="geometry"/>
                </mxCell>
                <mxCell id="41" value="v" style="ellipse;whiteSpace=wrap;html=1;aspect=fixed;" vertex="1" parent="1">
                    <mxGeometry x="-220" y="-875" width="30" height="30" as="geometry"/>
                </mxCell>
                <mxCell id="42" value="Ask" style="rounded=1;whiteSpace=wrap;html=1;" vertex="1" parent="1">
                    <mxGeometry x="-300" y="-960" width="60" height="20" as="geometry"/>
                </mxCell>
                <mxCell id="43" value="Board" style="rounded=1;whiteSpace=wrap;html=1;" vertex="1" parent="1">
                    <mxGeometry x="-300" y="-990" width="60" height="20" as="geometry"/>
                </mxCell>
                <mxCell id="44" value="Arm" style="rounded=1;whiteSpace=wrap;html=1;" vertex="1" parent="1">
                    <mxGeometry x="-300" y="-1020" width="60" height="20" as="geometry"/>
                </mxCell>
                <mxCell id="46" value="CHAT" style="shape=process;whiteSpace=wrap;html=1;backgroundOutline=1;" vertex="1" parent="1">
                    <mxGeometry x="-300" y="-1110" width="100" height="34" as="geometry"/>
                </mxCell>
                <mxCell id="52" value="(6)" style="text;html=1;align=center;verticalAlign=middle;whiteSpace=wrap;rounded=0;" vertex="1" parent="1">
                    <mxGeometry x="-277.5" y="-1166" width="55" height="44" as="geometry"/>
                </mxCell>
                <mxCell id="55" value="" style="rounded=0;whiteSpace=wrap;html=1;" vertex="1" parent="1">
                    <mxGeometry x="-830" y="-740" width="660" height="310" as="geometry"/>
                </mxCell>
                <mxCell id="56" value="ScreenShare" style="rounded=1;whiteSpace=wrap;html=1;" vertex="1" parent="1">
                    <mxGeometry x="-300" y="-930" width="80" height="20" as="geometry"/>
                </mxCell>
                <mxCell id="59" value="" style="rounded=0;whiteSpace=wrap;html=1;strokeColor=#1A1A1A;fillColor=none;fontColor=#1A1A1A;" vertex="1" parent="1">
                    <mxGeometry x="-830" y="-490" width="660" height="60" as="geometry"/>
                </mxCell>
                <mxCell id="60" value="Text" style="text;html=1;strokeColor=none;fillColor=none;align=center;verticalAlign=middle;whiteSpace=wrap;rounded=0;fontColor=#1A1A1A;fontSize=14;" vertex="1" parent="1">
                    <mxGeometry x="-820" y="-475" width="70" height="30" as="geometry"/>
                </mxCell>
                <mxCell id="61" value="" style="rounded=0;whiteSpace=wrap;html=1;strokeColor=#1A1A1A;fillColor=none;fontSize=14;fontColor=#1A1A1A;" vertex="1" parent="1">
                    <mxGeometry x="-750" y="-463.75" width="20" height="7.5" as="geometry"/>
                </mxCell>
                <mxCell id="62" value="" style="rounded=1;whiteSpace=wrap;html=1;strokeColor=#1A1A1A;fillColor=none;fontSize=14;fontColor=#1A1A1A;arcSize=30;" vertex="1" parent="1">
                    <mxGeometry x="-720" y="-465" width="30" height="10" as="geometry"/>
                </mxCell>
                <mxCell id="63" value="" style="rhombus;whiteSpace=wrap;html=1;strokeColor=#1A1A1A;fillColor=none;fontSize=14;fontColor=#1A1A1A;" vertex="1" parent="1">
                    <mxGeometry x="-680" y="-469.37" width="20" height="18.75" as="geometry"/>
                </mxCell>
                <mxCell id="64" value="" style="shape=cylinder;whiteSpace=wrap;html=1;boundedLbl=1;backgroundOutline=1;strokeColor=#1A1A1A;fillColor=none;fontSize=14;fontColor=#1A1A1A;" vertex="1" parent="1">
                    <mxGeometry x="-650" y="-472.5" width="10" height="22.5" as="geometry"/>
                </mxCell>
                <mxCell id="65" value="" style="shape=flexArrow;endArrow=classic;html=1;fontSize=14;fontColor=#1A1A1A;" edge="1" parent="1">
                    <mxGeometry width="50" height="50" relative="1" as="geometry">
                        <mxPoint x="-620" y="-448.75" as="sourcePoint"/>
                        <mxPoint x="-600" y="-473.75" as="targetPoint"/>
                        <Array as="points"/>
                    </mxGeometry>
                </mxCell>
                <mxCell id="66" value="Karandash" style="text;html=1;strokeColor=none;fillColor=none;align=center;verticalAlign=middle;whiteSpace=wrap;rounded=0;fontSize=14;fontColor=#1A1A1A;" vertex="1" parent="1">
                    <mxGeometry x="-570" y="-470" width="40" height="20" as="geometry"/>
                </mxCell>
                <mxCell id="67" value="Add file" style="shape=process;whiteSpace=wrap;html=1;backgroundOutline=1;strokeColor=#1A1A1A;fillColor=none;fontSize=14;fontColor=#1A1A1A;" vertex="1" parent="1">
                    <mxGeometry x="-500" y="-470" width="70" height="20" as="geometry"/>
                </mxCell>
                <mxCell id="68" value="" style="shape=actor;whiteSpace=wrap;html=1;strokeColor=#1A1A1A;fillColor=none;fontSize=14;fontColor=#1A1A1A;" vertex="1" parent="1">
                    <mxGeometry x="-285" y="-1157" width="20" height="26" as="geometry"/>
                </mxCell>
            </root>
        </mxGraphModel>
    </diagram>
</mxfile>